<svg height="511pt" viewBox="0 0 511.99909 511" width="511pt" xmlns="http://www.w3.org/2000/svg"><path d="m4.480469 507.800781c-4.136719-4.132812-5.550781-10.261719-3.648438-15.789062l150.878907-438.183594c1.921874-5.585937 6.886718-9.5625 12.753906-10.21875 1.3125-.148437 32.621094-3.503906 75.566406 4.851563 39.628906 7.710937 97.28125 27.3125 146.882812 76.914062 49.601563 49.601562 69.203126 107.253906 76.910157 146.882812 8.355469 42.941407 4.996093 74.246094 4.851562 75.558594-.660156 5.867188-4.636719 10.835938-10.21875 12.757813l-438.1875 150.875c-5.527343 1.902343-11.65625.488281-15.789062-3.648438zm0 0" fill="#fff373"/><path d="m463.824219 272.257812c-7.707031-39.628906-27.308594-97.28125-76.910157-146.882812 0 0-.003906 0-.003906-.003906l-382.429687 382.429687c4.132812 4.136719 10.261719 5.550781 15.789062 3.648438l438.183594-150.878907c5.585937-1.917968 9.5625-6.886718 10.21875-12.753906.148437-1.3125 3.503906-32.617187-4.847656-75.558594zm0 0" fill="#ffd83d"/><path d="m87.636719 424.648438c5.65625 5.65625 16.046875 6.101562 21.625 0 5.59375-6.121094 6.0625-15.566407 0-21.628907-5.65625-5.65625-16.050781-6.101562-21.625 0-5.597657 6.121094-6.066407 15.566407 0 21.628907zm0 0" fill="#cc511b"/><path d="m295.359375 213.878906c5.65625 5.65625 16.046875 6.101563 21.625 0 5.597656-6.121094 6.0625-15.5625 0-21.625-5.65625-5.65625-16.046875-6.101562-21.625 0-5.597656 6.121094-6.0625 15.5625 0 21.625zm0 0" fill="#cc511b"/><path d="m109.261719 403.019531-21.625 21.628907c5.65625 5.65625 16.046875 6.101562 21.625 0 5.59375-6.121094 6.0625-15.566407 0-21.628907zm0 0" fill="#83360b"/><path d="m204.710938 307.570312c-19.777344-19.777343-51.957032-19.777343-71.730469 0-19.777344 19.777344-19.777344 51.957032 0 71.730469 19.773437 19.777344 51.957031 19.777344 71.730469 0 19.777343-19.773437 19.777343-51.953125 0-71.730469zm0 0" fill="#fa732d"/><path d="m204.710938 307.570312-71.730469 71.730469c19.773437 19.777344 51.953125 19.777344 71.730469 0 19.777343-19.773437 19.777343-51.953125 0-71.730469zm0 0" fill="#f92814"/><path d="m511.910156 335.394531c-1.472656-25.265625-6.484375-64.3125-21.988281-106.816406-17.511719-48.007813-44.511719-90.472656-80.257813-126.21875-35.082031-35.078125-77.246093-61.746094-125.328124-79.265625-42.46875-15.472656-81.746094-20.761719-107.21875-22.476562-15.265626-1.027344-30.078126 4.71875-40.648438 15.769531-10.5625 11.039062-15.644531 26.082031-13.941406 41.265625 2.792968 24.9375 23.007812 44.121094 48.066406 45.613281 37.28125 2.21875 108.429688 14.546875 166.023438 72.140625 34.320312 34.320312 56.878906 77.113281 67.058593 127.195312 2.605469 12.808594 4.308594 25.882813 5.066407 38.863282.761718 12.984375 6.285156 24.667968 14.914062 33.296875 8.003906 8.003906 18.675781 13.378906 30.6875 14.726562l.5.054688c15.097656 1.691406 30.074219-3.332031 41.097656-13.78125 11.035156-10.460938 16.855469-25.175781 15.96875-40.367188zm0 0" fill="#cc511b"/><path d="m249.21875 157.015625c-19.777344-19.777344-51.957031-19.777344-71.734375 0s-19.773437 51.953125 0 71.730469c19.777344 19.777344 51.957031 19.777344 71.734375 0 19.777344-19.773438 19.777344-51.953125 0-71.730469zm0 0" fill="#fa732d"/><path d="m355.265625 263.0625c-19.773437-19.773438-51.953125-19.773438-71.730469 0-19.777344 19.777344-19.777344 51.957031 0 71.734375 19.777344 19.773437 51.953125 19.773437 71.730469 0 19.777344-19.777344 19.777344-51.957031 0-71.734375zm0 0" fill="#f92814"/><path d="m147.386719 267.769531c5.65625 5.65625 16.046875 6.101563 21.625 0 5.597656-6.121093 6.0625-15.5625 0-21.625-5.65625-5.65625-16.050781-6.101562-21.625 0-5.597657 6.121094-6.0625 15.5625 0 21.625zm0 0" fill="#cc511b"/><g fill="#83360b"><path d="m245.273438 364.132812c5.65625 5.65625 16.050781 6.101563 21.628906 0 5.59375-6.121093 6.058594-15.5625 0-21.625-5.65625-5.65625-16.050782-6.101562-21.628906 0-5.597657 6.121094-6.0625 15.5625 0 21.625zm0 0"/><path d="m319.023438 193.257812-21.625 21.625c5.65625 5.65625 16.046874 6.101563 21.625 0 5.597656-6.121093 6.0625-15.5625 0-21.625zm0 0"/><path d="m511.910156 335.394531c-1.472656-25.265625-6.484375-64.3125-21.988281-106.816406-17.488281-47.949219-44.449219-90.371094-80.128906-126.089844l-73.046875 73.046875c34.246094 34.296875 56.765625 77.046875 66.929687 127.066406 2.605469 12.808594 4.308594 25.882813 5.066407 38.863282.761718 12.984375 6.285156 24.667968 14.914062 33.296875 8.003906 8.003906 18.675781 13.378906 30.6875 14.726562l.5.054688c15.097656 1.691406 30.074219-3.332031 41.097656-13.78125 11.035156-10.460938 16.855469-25.175781 15.96875-40.367188zm0 0"/></g></svg>